<svg width="331" height="251" viewBox="0 0 331 251" fill="none" xmlns="http://www.w3.org/2000/svg">
<g clip-path="url(#clip0_104_499)">
<path d="M132.455 24.2103C128.422 31.1531 136.015 42.8514 128.362 45.2806L128.993 44.6505C133.612 38.9718 123.957 26.9525 128.576 21.2738C129.294 20.4408 129.91 19.5255 130.412 18.5472" fill="#2F2E41"/>
<path d="M170.221 126.067C170.353 125.373 170.332 124.657 170.157 123.972C169.983 123.287 169.66 122.648 169.212 122.1C168.764 121.553 168.202 121.11 167.564 120.804C166.926 120.497 166.229 120.334 165.521 120.326L155.553 91.3836L150.035 98.4121L160.575 125.456C160.64 126.645 161.139 127.768 161.978 128.614C162.817 129.459 163.937 129.968 165.126 130.044C166.315 130.119 167.491 129.756 168.43 129.023C169.369 128.29 170.006 127.239 170.221 126.067L170.221 126.067Z" fill="#FFB8B8"/>
<path d="M126.403 56.1877C126.403 56.1877 126.093 45.7108 135.468 51.7126C144.843 57.7143 165.254 113.936 165.254 113.936L155.096 119.428L132.037 67.9789L126.403 56.1877Z" fill="#0073E5"/>
<path d="M154.061 235.754L149.38 237.753L139.436 220.66L146.345 217.709L154.061 235.754Z" fill="#FFB6B6"/>
<path d="M159.998 242.804L156.641 244.238L154.687 241.326L154.507 245.149L145.603 248.952C145.176 249.134 144.703 249.175 144.251 249.069C143.799 248.963 143.393 248.716 143.092 248.363C142.79 248.01 142.61 247.57 142.577 247.107C142.544 246.645 142.659 246.183 142.907 245.791L147.919 237.847L146.55 234.645L154.219 231.897L159.998 242.804Z" fill="#2F2E41"/>
<path d="M80.6779 241.552L75.5934 241.304L74.1318 221.586L81.6367 221.952L80.6779 241.552Z" fill="#FFB6B6"/>
<path d="M82.9314 250.489L79.285 250.311L78.8024 246.839L76.9672 250.198L67.296 249.726C66.8325 249.703 66.3883 249.533 66.0283 249.24C65.6683 248.947 65.4114 248.547 65.2951 248.098C65.1787 247.649 65.2091 247.175 65.3817 246.744C65.5543 246.314 65.86 245.949 66.2544 245.705L74.2382 240.752L74.4083 237.273L82.5079 238.155L82.9314 250.489Z" fill="#2F2E41"/>
<path d="M230.493 238.41C230.829 238.422 231.162 238.331 231.445 238.148C231.728 237.965 231.948 237.7 232.075 237.388C232.202 237.076 232.23 236.732 232.155 236.404C232.08 236.075 231.906 235.778 231.657 235.552C231.614 235.387 231.583 235.269 231.54 235.105C231.854 234.284 232.407 233.576 233.127 233.071C233.847 232.566 234.701 232.287 235.58 232.27C236.46 232.253 237.324 232.5 238.063 232.977C238.801 233.455 239.38 234.142 239.726 234.95C241.717 239.488 244.283 244.181 243.077 249.212C251.192 231.592 248.167 209.8 235.785 194.916C232.384 193.086 229.611 189.803 228.86 185.967C230.54 186.518 232.615 185.137 231.339 183.387C230.787 182.719 230.23 182.055 229.677 181.387C235.973 174.557 243.653 185.124 236.739 194.327C239.056 197.175 241.07 200.256 242.746 203.522C242.333 200.041 242.752 196.512 243.971 193.225C245.208 190.16 247.556 187.567 249.621 184.908C252.132 181.668 257.376 183.102 257.756 187.179C255.419 187.972 255.146 191.36 257.833 191.798C257.203 199.395 252.307 206.419 245.504 209.813C248.096 216.866 249.153 224.39 248.606 231.884C249.729 223.121 259.108 220.908 265.645 217.368C266.061 217.096 266.546 216.95 267.043 216.95C267.54 216.949 268.026 217.093 268.443 217.363C268.859 217.634 269.188 218.02 269.388 218.474C269.589 218.928 269.653 219.431 269.573 219.921C268.669 220.298 267.806 220.764 266.995 221.312C266.615 221.572 266.325 221.944 266.164 222.376C266.004 222.808 265.981 223.279 266.099 223.724C266.217 224.169 266.47 224.567 266.823 224.863C267.176 225.159 267.612 225.339 268.071 225.377C264.838 233.6 256.328 239.182 247.534 239.235C246.724 242.912 245.534 246.496 243.982 249.928L230.931 250.053C230.882 249.908 230.839 249.759 230.795 249.614C232.004 249.679 233.216 249.595 234.405 249.365C231.173 245.613 228.682 243.708 230.492 238.41L230.493 238.41Z" fill="#F2F2F2"/>
<path d="M93.5225 113.38C93.5225 113.38 83.1825 141.541 83.0154 144.692C82.8483 147.843 79.8995 187.695 77.4264 190.01C74.9532 192.326 67.3922 228.224 73.2754 231.032C79.1586 233.84 97.7198 229.188 97.7198 229.188L104.177 186.784L106.37 154.296C106.37 154.296 113.048 230.798 125.16 230.573C137.272 230.348 152.031 225.739 152.031 225.739L135.078 179.409C135.078 179.409 135.318 124.56 131.388 113.497C127.459 102.435 93.5225 113.38 93.5225 113.38Z" fill="#2F2E41"/>
<path d="M124.204 40.8243L110.356 42.0918L108.126 48.9355C108.126 48.9355 96.537 55.2957 99.1031 58.1852C101.669 61.0747 98.5293 80.5474 98.5293 80.5474L99.2385 96.3537C99.2385 96.3537 98.4767 107.305 96.1969 109.828C93.9172 112.351 87.9528 118.538 92.1671 115.578C106.944 105.199 132.772 113.957 132.772 113.957L129.082 91.3715C129.082 91.3715 137.463 54.3943 134.155 51.2714C130.848 48.1486 127.727 47.7539 127.727 47.7539L124.204 40.8243Z" fill="#0073E5"/>
<path d="M51.4416 112.464C52.1373 112.335 52.7962 112.055 53.3717 111.643C53.9473 111.232 54.4256 110.699 54.7729 110.083C55.1203 109.467 55.3282 108.782 55.3821 108.077C55.4359 107.372 55.3344 106.663 55.0847 106.002L78.4404 86.1993L69.8827 83.6176L48.5049 103.261C47.4203 103.754 46.5544 104.628 46.0711 105.716C45.5879 106.804 45.5209 108.032 45.8829 109.166C46.2449 110.301 47.0107 111.263 48.0352 111.871C49.0597 112.479 50.2717 112.69 51.4416 112.464Z" fill="#FFB8B8"/>
<path d="M110.755 60.6704C110.755 60.6704 115.357 51.2517 104.341 52.8606C93.3242 54.4695 51.5479 97.2945 51.5479 97.2945L58.5392 106.481L100.761 69.0947L110.755 60.6704Z" fill="#0073E5"/>
<path d="M92.8161 44.6935L49.138 100.615C48.3824 101.586 48.0426 102.816 48.1931 104.036C48.3436 105.257 48.9722 106.368 49.9409 107.126C60.0841 131.739 90.4298 149.99 126.127 166.556C127.098 167.312 128.329 167.652 129.551 167.502C130.772 167.351 131.884 166.723 132.643 165.754L176.321 109.832C177.077 108.862 177.417 107.631 177.267 106.411C177.116 105.19 176.487 104.079 175.518 103.321C145.561 86.4165 119.813 66.8309 99.3315 43.891C98.3603 43.1359 97.1292 42.7963 95.9079 42.9468C94.6866 43.0972 93.5748 43.7253 92.8161 44.6935Z" fill="#E6E6E6"/>
<path d="M173.255 108.557L159.96 125.579C151.838 135.915 139.954 142.618 126.903 144.226C113.852 145.833 100.695 142.214 90.3058 134.158L53.0467 105.093C52.4947 104.663 52.1363 104.031 52.05 103.336C51.9636 102.642 52.1565 101.941 52.5863 101.389L94.7925 47.3517C95.2246 46.8009 95.8576 46.4439 96.5527 46.359C97.2478 46.274 97.9483 46.4681 98.5004 46.8986C117.348 71.221 142.577 90.1485 172.798 104.856C173.349 105.287 173.707 105.918 173.793 106.612C173.878 107.306 173.685 108.006 173.255 108.557Z" fill="white"/>
<path d="M91.9448 75.2195L83.2862 86.3051C83.0564 86.5987 82.7194 86.7892 82.3492 86.8346C81.979 86.88 81.6059 86.7767 81.3118 86.5474C81.0178 86.318 80.8269 85.9814 80.7812 85.6115C80.7354 85.2415 80.8384 84.8686 81.0676 84.5745L89.7262 73.4889C89.8399 73.3431 89.9811 73.2211 90.142 73.13C90.3028 73.0388 90.48 72.9802 90.6635 72.9575C90.847 72.9348 91.0332 72.9485 91.2114 72.9978C91.3896 73.047 91.5564 73.1309 91.7021 73.2446C91.8479 73.3583 91.9698 73.4996 92.0609 73.6604C92.1519 73.8212 92.2104 73.9984 92.233 74.1818C92.2555 74.3652 92.2417 74.5512 92.1922 74.7293C92.1427 74.9073 92.0587 75.0739 91.9448 75.2195H91.9448Z" fill="#CCCCCC"/>
<path d="M108.186 66.9966L89.1708 91.3416C89.0571 91.4872 88.9158 91.609 88.755 91.7C88.5942 91.791 88.417 91.8495 88.2336 91.8721C88.0502 91.8946 87.8641 91.8809 87.686 91.8316C87.5079 91.7824 87.3413 91.6985 87.1956 91.5849C87.05 91.4712 86.9281 91.3301 86.837 91.1694C86.746 91.0087 86.6875 90.8316 86.6649 90.6483C86.6423 90.465 86.656 90.2791 86.7053 90.1011C86.7546 89.9231 86.8385 89.7566 86.9522 89.611L105.967 65.266C106.081 65.1201 106.222 64.998 106.383 64.9067C106.544 64.8154 106.721 64.7567 106.905 64.7339C107.088 64.7111 107.274 64.7248 107.453 64.774C107.631 64.8233 107.798 64.9072 107.944 65.0209C108.09 65.1347 108.211 65.2761 108.303 65.437C108.394 65.5979 108.452 65.7751 108.475 65.9587C108.497 66.1422 108.483 66.3283 108.434 66.5064C108.384 66.6845 108.3 66.8511 108.186 66.9966H108.186Z" fill="#CCCCCC"/>
<path d="M75.7549 107.604C80.8737 107.604 85.0234 103.457 85.0234 98.3418C85.0234 93.2262 80.8737 89.0792 75.7549 89.0792C70.636 89.0792 66.4863 93.2262 66.4863 98.3418C66.4863 103.457 70.636 107.604 75.7549 107.604Z" fill="#0073E5"/>
<path d="M109.195 86.238L85.8409 116.138C85.5972 116.387 85.2707 116.536 84.9236 116.559C84.5765 116.582 84.2331 116.476 83.9589 116.263C83.6847 116.049 83.4989 115.741 83.4368 115.399C83.3747 115.057 83.4408 114.704 83.6224 114.408L106.976 84.5074C107.22 84.2594 107.547 84.1096 107.894 84.0868C108.241 84.0639 108.584 84.1695 108.858 84.3833C109.133 84.5972 109.319 84.9045 109.381 85.2465C109.443 85.5886 109.377 85.9415 109.195 86.238Z" fill="#CCCCCC"/>
<path d="M124.345 79.4112L91.7486 121.145C91.5049 121.393 91.1784 121.543 90.8313 121.566C90.4842 121.588 90.1408 121.483 89.8666 121.269C89.5924 121.055 89.4066 120.748 89.3445 120.406C89.2824 120.064 89.3485 119.711 89.5301 119.414L122.127 77.6806C122.37 77.4326 122.697 77.2828 123.044 77.26C123.391 77.2371 123.735 77.3427 124.009 77.5566C124.283 77.7705 124.469 78.0777 124.531 78.4198C124.593 78.7618 124.527 79.1147 124.345 79.4112Z" fill="#CCCCCC"/>
<path d="M124.232 97.9665L100.878 127.867C100.634 128.115 100.307 128.265 99.9602 128.288C99.6131 128.311 99.2697 128.205 98.9955 127.991C98.7213 127.777 98.5355 127.47 98.4734 127.128C98.4113 126.786 98.4774 126.433 98.659 126.136L122.013 96.2359C122.257 95.9879 122.583 95.8382 122.93 95.8153C123.278 95.7924 123.621 95.898 123.895 96.1119C124.169 96.3258 124.355 96.633 124.417 96.9751C124.479 97.3171 124.413 97.67 124.232 97.9665Z" fill="#CCCCCC"/>
<path d="M155.133 101.655L131.779 131.556C131.536 131.804 131.209 131.954 130.862 131.976C130.515 131.999 130.172 131.894 129.897 131.68C129.623 131.466 129.437 131.159 129.375 130.817C129.313 130.475 129.379 130.122 129.561 129.825L152.915 99.9247C153.159 99.6767 153.485 99.5269 153.832 99.5041C154.179 99.4812 154.523 99.5868 154.797 99.8006C155.071 100.015 155.257 100.322 155.319 100.664C155.381 101.006 155.315 101.359 155.133 101.655Z" fill="#0073E5"/>
<path d="M139.383 91.14L106.786 132.874C106.543 133.122 106.216 133.272 105.869 133.294C105.522 133.317 105.178 133.212 104.904 132.998C104.63 132.784 104.444 132.477 104.382 132.135C104.32 131.793 104.386 131.44 104.568 131.143L137.164 89.4094C137.408 89.1614 137.735 89.0117 138.082 88.9888C138.429 88.9659 138.772 89.0715 139.046 89.2854C139.321 89.4993 139.506 89.8065 139.568 90.1486C139.63 90.4906 139.564 90.8435 139.383 91.14Z" fill="#CCCCCC"/>
<path d="M100.988 23.1583C100.987 25.4084 101.539 27.6242 102.595 29.6114C103.652 31.5985 105.18 33.2962 107.046 34.5553C108.912 35.8145 111.058 36.5967 113.297 36.8332C115.536 37.0697 117.799 36.7533 119.887 35.9118C121.975 35.0703 123.825 33.7294 125.273 32.0069C126.722 30.2843 127.725 28.2327 128.195 26.0322C128.665 23.8317 128.587 21.5495 127.968 19.3861C127.35 17.2227 126.209 15.2441 124.646 13.6241L124.58 13.5581C124.47 13.4426 124.36 13.3272 124.245 13.2172C124.244 13.2172 124.243 13.2171 124.243 13.2168C124.242 13.2165 124.241 13.2161 124.241 13.2156C124.24 13.2151 124.24 13.2145 124.24 13.2138C124.239 13.2131 124.239 13.2124 124.239 13.2117C124.096 13.0797 123.953 12.9478 123.805 12.8213C121.817 11.0799 119.369 9.94786 116.755 9.56072C114.14 9.17358 111.469 9.54775 109.062 10.6384C106.654 11.7291 104.612 13.4901 103.181 15.7105C101.749 17.931 100.988 20.5167 100.988 23.1583V23.1583Z" fill="#2F2E41"/>
<path d="M118.131 37.8664C124.501 37.8664 129.665 32.7058 129.665 26.3398C129.665 19.9739 124.501 14.8132 118.131 14.8132C111.761 14.8132 106.597 19.9739 106.597 26.3398C106.597 32.7058 111.761 37.8664 118.131 37.8664Z" fill="#FFB8B8"/>
<path d="M105.836 29.412C104.708 24.3347 106.338 18.6463 109.891 15.2567C111.678 13.5856 113.9 12.4522 116.303 11.9868C118.705 11.5214 121.19 11.7429 123.473 12.6258C123.763 12.7428 124.053 12.8709 124.337 13.0046L124.47 13.0669V13.0863C124.495 13.104 124.521 13.1227 124.547 13.1416C124.601 13.192 124.666 13.2281 124.737 13.2467C125.739 13.2205 126.735 13.4061 127.659 13.7913C128.584 14.1766 129.417 14.7527 130.103 15.482C131.891 17.4204 132.733 20.553 132.474 24.3027L132.466 24.42L132.366 24.4823C131.013 25.3394 129.609 26.1133 128.161 26.7995C123.097 29.1788 118.475 29.6197 114.032 28.1456L113.951 28.1186L112.086 24.9955C111.703 27.1495 111.908 34.2944 109.711 34.6815L105.883 29.6274L105.836 29.412Z" fill="#2F2E41"/>
<path d="M81.5562 39.4466C85.4812 37.422 80.4332 30.074 81.4476 25.7779C82.4619 21.4817 89.7665 20.1 90.2318 15.7104C90.6972 11.3208 91.7918 6.79342 94.6903 3.46258C96.5424 1.33417 99.2714 -0.237092 102.081 0.0295044C103.032 0.119704 103.952 0.413608 104.779 0.891198C105.606 1.36879 106.32 2.01885 106.872 2.7971C107.425 3.57535 107.803 4.4635 107.982 5.40107C108.16 6.33864 108.134 7.30361 107.906 8.23023C108.706 7.0974 110.776 7.34293 111.288 8.63148C111.744 9.77699 110.737 11.1645 109.553 11.2659C108.003 13.1787 106.228 15.2087 103.8 15.5946C103.413 15.6834 103.011 15.6832 102.625 15.5939C102.238 15.5047 101.876 15.3288 101.568 15.0796C100.996 14.5314 100.952 13.4353 101.629 13.0256C98.578 14.237 96.789 17.5341 96.3362 20.7841C95.8835 24.034 96.5099 27.3224 96.9226 30.5776C97.3354 33.8329 97.5133 37.2573 96.2361 40.2802C94.7271 43.8518 91.2529 46.4116 87.4614 47.2326C83.6699 48.0535 79.632 47.2512 76.2001 45.4435C72.7682 43.6357 69.9063 40.8761 67.5684 37.7822C71.5955 40.64 77.1672 41.7106 81.5562 39.4466Z" fill="#2F2E41"/>
<path d="M112.622 25.5952C108.589 32.538 116.183 44.2363 108.53 46.6655L109.16 46.0354C113.78 40.3567 104.124 28.3374 108.744 22.6587C109.462 21.8257 110.078 20.9104 110.579 19.9321" fill="#2F2E41"/>
<path d="M106.375 29.3055C106.375 29.3055 109.791 16.5602 124.437 13.6185C124.454 13.6131 124.509 13.5911 124.58 13.5581C124.624 13.5306 124.679 13.5031 124.734 13.4756C124.569 13.3821 124.41 13.2997 124.245 13.2172C124.244 13.2172 124.243 13.217 124.243 13.2168C124.242 13.2165 124.241 13.2161 124.241 13.2156C124.24 13.2151 124.24 13.2144 124.24 13.2138C124.239 13.2131 124.239 13.2124 124.239 13.2117C124.096 13.0797 123.953 12.9477 123.805 12.8213L123.386 12.8378C123.386 12.8378 108.691 10.512 106.375 29.3055Z" fill="#FD6584"/>
<path d="M2.44283e-06 250.45C-0.000213127 250.522 0.0138408 250.593 0.0413482 250.66C0.0688557 250.726 0.109279 250.787 0.16029 250.838C0.211301 250.889 0.271891 250.929 0.33858 250.957C0.40527 250.984 0.476739 250.998 0.548877 250.998H330.451C330.597 250.998 330.736 250.94 330.839 250.837C330.942 250.735 331 250.595 331 250.45C331 250.304 330.942 250.165 330.839 250.062C330.736 249.959 330.597 249.901 330.451 249.901H0.548849C0.476714 249.901 0.405251 249.915 0.338566 249.942C0.271881 249.97 0.211291 250.01 0.160283 250.061C0.109276 250.112 0.068855 250.173 0.0413482 250.239C0.0138414 250.306 -0.000210049 250.377 2.44283e-06 250.45Z" fill="#CCCCCC"/>
</g>
<defs>
<clipPath id="clip0_104_499">
<rect width="331" height="251" fill="white"/>
</clipPath>
</defs>
</svg>
